<svg width="611" height="129" viewBox="0 0 611 129" fill="none" xmlns="http://www.w3.org/2000/svg">
<g filter="url(#filter0_dd_4_55)">
<mask id="path-1-outside-1_4_55" maskUnits="userSpaceOnUse" x="4" y="31" width="596" height="67" fill="black">
<rect fill="white" x="4" y="31" width="596" height="67"/>
<path d="M17.1876 42.06V73.08H5.06758V42.06H17.1876ZM5.06758 75.42H33.8076V84H10.9476C8.66758 81.72 7.34758 80.4 5.06758 78.12V75.42ZM69.9196 47.22L75.7396 53.04V73.08H63.6196V55.8H39.1996V53.04C41.4796 50.76 42.7396 49.5 45.0196 47.22H69.9196ZM51.3196 58.14V75.42H75.7396V78.18C73.4596 80.46 72.1996 81.72 69.9196 84H45.0196C42.7396 81.72 41.4796 80.46 39.1996 78.18V58.14H51.3196ZM119.628 55.8H95.2077V75.42H107.508V58.14H119.628V90.78C117.348 93.06 116.088 94.32 113.808 96.6H85.6077V88.02H107.508V84H88.9077C88.3677 83.4 87.8277 82.92 87.3477 82.44L84.5877 79.74C84.1077 79.26 83.6277 78.72 83.0277 78.18V53.04C83.6277 52.44 84.1077 51.96 84.5877 51.48L87.3477 48.78C87.8277 48.3 88.3677 47.76 88.9077 47.22H119.628V55.8ZM158.162 47.22L163.982 53.04V73.08H151.862V55.8H127.442V53.04C129.722 50.76 130.982 49.5 133.262 47.22H158.162ZM139.562 58.14V75.42H163.982V78.18C161.702 80.46 160.442 81.72 158.162 84H133.262C130.982 81.72 129.722 80.46 127.442 78.18V58.14H139.562ZM198.726 42.06H227.886V50.64H204.966V73.08H192.846V47.94C195.126 45.66 196.446 44.34 198.726 42.06ZM207.486 66.72V58.14H225.366V66.72H207.486ZM192.846 78.12V75.42H227.886V84H198.726C196.446 81.72 195.126 80.4 192.846 78.12ZM247.273 33.18V84H235.093V33.18H247.273ZM291.658 70.68H267.238V75.42H291.658V84H260.938C258.658 81.72 257.398 80.46 255.118 78.18V58.14H267.238V62.1H279.538V55.8H255.118V53.04C257.398 50.76 258.658 49.5 260.938 47.22H285.838C286.438 47.76 286.918 48.3 287.398 48.78L290.098 51.54C290.578 52.02 291.118 52.5 291.658 53.1V70.68ZM299.006 55.8V53.04C301.286 50.76 302.546 49.5 304.826 47.22H334.286V55.8H299.006ZM311.126 58.14V75.42H334.286V84H304.826C302.546 81.72 301.286 80.46 299.006 78.18V58.14H311.126ZM365.197 55.8H339.157V51L352.597 42.06H357.157V47.22H365.197V55.8ZM357.157 58.14V75.42H367.717V84H350.857C348.577 81.72 347.317 80.46 345.037 78.18V58.14H357.157ZM401.325 47.22C401.745 47.58 402.045 47.94 402.345 48.3L405.225 51.18V55.8H373.725V47.22H401.325ZM373.725 84V58.14H385.845V84H373.725ZM441.404 47.22L447.224 53.04V73.08H435.104V55.8H410.684V53.04C412.964 50.76 414.224 49.5 416.504 47.22H441.404ZM422.804 58.14V75.42H447.224V78.18C444.944 80.46 443.684 81.72 441.404 84H416.504C414.224 81.72 412.964 80.46 410.684 78.18V58.14H422.804ZM485.832 47.22L491.652 53.04V84H479.532V55.8H455.112V47.22H485.832ZM455.112 84V58.14H467.232V84H455.112ZM512.359 32.1V40.68H499.819V32.1H512.359ZM499.999 84V47.22H512.119V84H499.999ZM520.197 55.8V53.04C522.477 50.76 523.737 49.5 526.017 47.22H555.477V55.8H520.197ZM532.317 58.14V75.42H555.477V84H526.017C523.737 81.72 522.477 80.46 520.197 78.18V58.14H532.317ZM597.249 47.22V55.8H561.849V53.1C564.129 50.82 565.449 49.5 567.729 47.22H597.249ZM592.569 60.84C593.169 61.38 593.649 61.92 594.129 62.4L598.389 66.72V73.08H586.269V69.42H567.729C565.449 67.14 564.129 65.82 561.849 63.54V58.14H573.969V60.84H592.569ZM562.809 84V75.42H598.389V78.12C597.849 78.66 597.309 79.2 596.829 79.68L594.129 82.44C593.649 82.92 593.169 83.4 592.569 84H562.809Z"/>
</mask>
<path d="M17.1876 42.06V73.08H5.06758V42.06H17.1876ZM5.06758 75.42H33.8076V84H10.9476C8.66758 81.72 7.34758 80.4 5.06758 78.12V75.42ZM69.9196 47.22L75.7396 53.04V73.08H63.6196V55.8H39.1996V53.04C41.4796 50.76 42.7396 49.5 45.0196 47.22H69.9196ZM51.3196 58.14V75.42H75.7396V78.18C73.4596 80.46 72.1996 81.72 69.9196 84H45.0196C42.7396 81.72 41.4796 80.46 39.1996 78.18V58.14H51.3196ZM119.628 55.8H95.2077V75.42H107.508V58.14H119.628V90.78C117.348 93.06 116.088 94.32 113.808 96.6H85.6077V88.02H107.508V84H88.9077C88.3677 83.4 87.8277 82.92 87.3477 82.44L84.5877 79.74C84.1077 79.26 83.6277 78.72 83.0277 78.18V53.04C83.6277 52.44 84.1077 51.96 84.5877 51.48L87.3477 48.78C87.8277 48.3 88.3677 47.76 88.9077 47.22H119.628V55.8ZM158.162 47.22L163.982 53.04V73.08H151.862V55.8H127.442V53.04C129.722 50.76 130.982 49.5 133.262 47.22H158.162ZM139.562 58.14V75.42H163.982V78.18C161.702 80.46 160.442 81.72 158.162 84H133.262C130.982 81.72 129.722 80.46 127.442 78.18V58.14H139.562ZM198.726 42.06H227.886V50.64H204.966V73.08H192.846V47.94C195.126 45.66 196.446 44.34 198.726 42.06ZM207.486 66.72V58.14H225.366V66.72H207.486ZM192.846 78.12V75.42H227.886V84H198.726C196.446 81.72 195.126 80.4 192.846 78.12ZM247.273 33.18V84H235.093V33.18H247.273ZM291.658 70.68H267.238V75.42H291.658V84H260.938C258.658 81.72 257.398 80.46 255.118 78.18V58.14H267.238V62.1H279.538V55.8H255.118V53.04C257.398 50.76 258.658 49.5 260.938 47.22H285.838C286.438 47.76 286.918 48.3 287.398 48.78L290.098 51.54C290.578 52.02 291.118 52.5 291.658 53.1V70.68ZM299.006 55.8V53.04C301.286 50.76 302.546 49.5 304.826 47.22H334.286V55.8H299.006ZM311.126 58.14V75.42H334.286V84H304.826C302.546 81.72 301.286 80.46 299.006 78.18V58.14H311.126ZM365.197 55.8H339.157V51L352.597 42.06H357.157V47.22H365.197V55.8ZM357.157 58.14V75.42H367.717V84H350.857C348.577 81.72 347.317 80.46 345.037 78.18V58.14H357.157ZM401.325 47.22C401.745 47.58 402.045 47.94 402.345 48.3L405.225 51.18V55.8H373.725V47.22H401.325ZM373.725 84V58.14H385.845V84H373.725ZM441.404 47.22L447.224 53.04V73.08H435.104V55.8H410.684V53.04C412.964 50.76 414.224 49.5 416.504 47.22H441.404ZM422.804 58.14V75.42H447.224V78.18C444.944 80.46 443.684 81.72 441.404 84H416.504C414.224 81.72 412.964 80.46 410.684 78.18V58.14H422.804ZM485.832 47.22L491.652 53.04V84H479.532V55.8H455.112V47.22H485.832ZM455.112 84V58.14H467.232V84H455.112ZM512.359 32.1V40.68H499.819V32.1H512.359ZM499.999 84V47.22H512.119V84H499.999ZM520.197 55.8V53.04C522.477 50.76 523.737 49.5 526.017 47.22H555.477V55.8H520.197ZM532.317 58.14V75.42H555.477V84H526.017C523.737 81.72 522.477 80.46 520.197 78.18V58.14H532.317ZM597.249 47.22V55.8H561.849V53.1C564.129 50.82 565.449 49.5 567.729 47.22H597.249ZM592.569 60.84C593.169 61.38 593.649 61.92 594.129 62.4L598.389 66.72V73.08H586.269V69.42H567.729C565.449 67.14 564.129 65.82 561.849 63.54V58.14H573.969V60.84H592.569ZM562.809 84V75.42H598.389V78.12C597.849 78.66 597.309 79.2 596.829 79.68L594.129 82.44C593.649 82.92 593.169 83.4 592.569 84H562.809Z" fill="#F903AA"/>
<path d="M17.1876 42.06H18.1876V41.06H17.1876V42.06ZM17.1876 73.08V74.08H18.1876V73.08H17.1876ZM5.06758 73.08H4.06758V74.08H5.06758V73.08ZM5.06758 42.06V41.06H4.06758V42.06H5.06758ZM5.06758 75.42V74.42H4.06758V75.42H5.06758ZM33.8076 75.42H34.8076V74.42H33.8076V75.42ZM33.8076 84V85H34.8076V84H33.8076ZM10.9476 84L10.2405 84.7071L10.5334 85H10.9476V84ZM5.06758 78.12H4.06758V78.5342L4.36047 78.8271L5.06758 78.12ZM16.1876 42.06V73.08H18.1876V42.06H16.1876ZM17.1876 72.08H5.06758V74.08H17.1876V72.08ZM6.06758 73.08V42.06H4.06758V73.08H6.06758ZM5.06758 43.06H17.1876V41.06H5.06758V43.06ZM5.06758 76.42H33.8076V74.42H5.06758V76.42ZM32.8076 75.42V84H34.8076V75.42H32.8076ZM33.8076 83H10.9476V85H33.8076V83ZM11.6547 83.2929C10.5147 82.1529 9.61469 81.2529 8.71469 80.3529C7.81469 79.4529 6.91469 78.5529 5.77469 77.4129L4.36047 78.8271C5.50047 79.9671 6.40047 80.8671 7.30047 81.7671C8.20047 82.6671 9.10047 83.5671 10.2405 84.7071L11.6547 83.2929ZM6.06758 78.12V75.42H4.06758V78.12H6.06758ZM69.9196 47.22L70.6267 46.5129L70.3338 46.22H69.9196V47.22ZM75.7396 53.04H76.7396V52.6258L76.4467 52.3329L75.7396 53.04ZM75.7396 73.08V74.08H76.7396V73.08H75.7396ZM63.6196 73.08H62.6196V74.08H63.6196V73.08ZM63.6196 55.8H64.6196V54.8H63.6196V55.8ZM39.1996 55.8H38.1996V56.8H39.1996V55.8ZM39.1996 53.04L38.4925 52.3329L38.1996 52.6258V53.04H39.1996ZM45.0196 47.22V46.22H44.6054L44.3125 46.5129L45.0196 47.22ZM51.3196 58.14H52.3196V57.14H51.3196V58.14ZM51.3196 75.42H50.3196V76.42H51.3196V75.42ZM75.7396 75.42H76.7396V74.42H75.7396V75.42ZM75.7396 78.18L76.4467 78.8871L76.7396 78.5942V78.18H75.7396ZM69.9196 84V85H70.3338L70.6267 84.7071L69.9196 84ZM45.0196 84L44.3125 84.7071L44.6054 85H45.0196V84ZM39.1996 78.18H38.1996V78.5942L38.4925 78.8871L39.1996 78.18ZM39.1996 58.14V57.14H38.1996V58.14H39.1996ZM69.2125 47.9271L75.0325 53.7471L76.4467 52.3329L70.6267 46.5129L69.2125 47.9271ZM74.7396 53.04V73.08H76.7396V53.04H74.7396ZM75.7396 72.08H63.6196V74.08H75.7396V72.08ZM64.6196 73.08V55.8H62.6196V73.08H64.6196ZM63.6196 54.8H39.1996V56.8H63.6196V54.8ZM40.1996 55.8V53.04H38.1996V55.8H40.1996ZM39.9067 53.7471C41.0467 52.6071 41.9317 51.7221 42.8167 50.8371C43.7017 49.9521 44.5867 49.0671 45.7267 47.9271L44.3125 46.5129C43.1725 47.6529 42.2875 48.5379 41.4025 49.4229C40.5175 50.3079 39.6325 51.1929 38.4925 52.3329L39.9067 53.7471ZM45.0196 48.22H69.9196V46.22H45.0196V48.22ZM50.3196 58.14V75.42H52.3196V58.14H50.3196ZM51.3196 76.42H75.7396V74.42H51.3196V76.42ZM74.7396 75.42V78.18H76.7396V75.42H74.7396ZM75.0325 77.4729C72.7525 79.7529 71.4925 81.0129 69.2125 83.2929L70.6267 84.7071C72.9067 82.4271 74.1667 81.1671 76.4467 78.8871L75.0325 77.4729ZM69.9196 83H45.0196V85H69.9196V83ZM45.7267 83.2929C43.4467 81.0129 42.1867 79.7529 39.9067 77.4729L38.4925 78.8871C40.7725 81.1671 42.0325 82.4271 44.3125 84.7071L45.7267 83.2929ZM40.1996 78.18V58.14H38.1996V78.18H40.1996ZM39.1996 59.14H51.3196V57.14H39.1996V59.14ZM119.628 55.8V56.8H120.628V55.8H119.628ZM95.2077 55.8V54.8H94.2077V55.8H95.2077ZM95.2077 75.42H94.2077V76.42H95.2077V75.42ZM107.508 75.42V76.42H108.508V75.42H107.508ZM107.508 58.14V57.14H106.508V58.14H107.508ZM119.628 58.14H120.628V57.14H119.628V58.14ZM119.628 90.78L120.335 91.4871L120.628 91.1942V90.78H119.628ZM113.808 96.6V97.6H114.222L114.515 97.3071L113.808 96.6ZM85.6077 96.6H84.6077V97.6H85.6077V96.6ZM85.6077 88.02V87.02H84.6077V88.02H85.6077ZM107.508 88.02V89.02H108.508V88.02H107.508ZM107.508 84H108.508V83H107.508V84ZM88.9077 84L88.1644 84.669L88.4624 85H88.9077V84ZM87.3477 82.44L88.0549 81.7328L88.047 81.7252L87.3477 82.44ZM84.5877 79.74L83.8806 80.4472L83.8884 80.4548L84.5877 79.74ZM83.0277 78.18H82.0277V78.6254L82.3588 78.9233L83.0277 78.18ZM83.0277 53.04L82.3206 52.3329L82.0277 52.6258V53.04H83.0277ZM84.5877 51.48L83.8884 50.7651L83.8806 50.7729L84.5877 51.48ZM87.3477 48.78L88.0471 49.4949L88.0548 49.4871L87.3477 48.78ZM88.9077 47.22V46.22H88.4935L88.2006 46.5129L88.9077 47.22ZM119.628 47.22H120.628V46.22H119.628V47.22ZM119.628 54.8H95.2077V56.8H119.628V54.8ZM94.2077 55.8V75.42H96.2077V55.8H94.2077ZM95.2077 76.42H107.508V74.42H95.2077V76.42ZM108.508 75.42V58.14H106.508V75.42H108.508ZM107.508 59.14H119.628V57.14H107.508V59.14ZM118.628 58.14V90.78H120.628V58.14H118.628ZM118.921 90.0729C117.781 91.2129 116.896 92.0979 116.011 92.9829C115.126 93.8679 114.241 94.7529 113.101 95.8929L114.515 97.3071C115.655 96.1671 116.54 95.2821 117.425 94.3971C118.31 93.5121 119.195 92.6271 120.335 91.4871L118.921 90.0729ZM113.808 95.6H85.6077V97.6H113.808V95.6ZM86.6077 96.6V88.02H84.6077V96.6H86.6077ZM85.6077 89.02H107.508V87.02H85.6077V89.02ZM108.508 88.02V84H106.508V88.02H108.508ZM107.508 83H88.9077V85H107.508V83ZM89.651 83.331C89.0911 82.7089 88.479 82.157 88.0548 81.7329L86.6406 83.1471C87.1765 83.683 87.6443 84.0911 88.1644 84.669L89.651 83.331ZM88.047 81.7252L85.287 79.0252L83.8884 80.4548L86.6484 83.1548L88.047 81.7252ZM85.2948 79.0329C84.8707 78.6088 84.3188 77.9966 83.6967 77.4367L82.3588 78.9233C82.9367 79.4434 83.3447 79.9112 83.8806 80.4471L85.2948 79.0329ZM84.0277 78.18V53.04H82.0277V78.18H84.0277ZM83.7348 53.7471C84.3348 53.1471 84.8148 52.6671 85.2948 52.1871L83.8806 50.7729C83.4006 51.2529 82.9206 51.7329 82.3206 52.3329L83.7348 53.7471ZM85.287 52.1948L88.047 49.4948L86.6484 48.0652L83.8884 50.7652L85.287 52.1948ZM88.0548 49.4871C88.5348 49.0071 89.0748 48.4671 89.6148 47.9271L88.2006 46.5129C87.6606 47.0529 87.1206 47.5929 86.6406 48.0729L88.0548 49.4871ZM88.9077 48.22H119.628V46.22H88.9077V48.22ZM118.628 47.22V55.8H120.628V47.22H118.628ZM158.162 47.22L158.869 46.5129L158.576 46.22H158.162V47.22ZM163.982 53.04H164.982V52.6258L164.689 52.3329L163.982 53.04ZM163.982 73.08V74.08H164.982V73.08H163.982ZM151.862 73.08H150.862V74.08H151.862V73.08ZM151.862 55.8H152.862V54.8H151.862V55.8ZM127.442 55.8H126.442V56.8H127.442V55.8ZM127.442 53.04L126.735 52.3329L126.442 52.6258V53.04H127.442ZM133.262 47.22V46.22H132.848L132.555 46.5129L133.262 47.22ZM139.562 58.14H140.562V57.14H139.562V58.14ZM139.562 75.42H138.562V76.42H139.562V75.42ZM163.982 75.42H164.982V74.42H163.982V75.42ZM163.982 78.18L164.689 78.8871L164.982 78.5942V78.18H163.982ZM158.162 84V85H158.576L158.869 84.7071L158.162 84ZM133.262 84L132.555 84.7071L132.848 85H133.262V84ZM127.442 78.18H126.442V78.5942L126.735 78.8871L127.442 78.18ZM127.442 58.14V57.14H126.442V58.14H127.442ZM157.455 47.9271L163.275 53.7471L164.689 52.3329L158.869 46.5129L157.455 47.9271ZM162.982 53.04V73.08H164.982V53.04H162.982ZM163.982 72.08H151.862V74.08H163.982V72.08ZM152.862 73.08V55.8H150.862V73.08H152.862ZM151.862 54.8H127.442V56.8H151.862V54.8ZM128.442 55.8V53.04H126.442V55.8H128.442ZM128.149 53.7471C129.289 52.6071 130.174 51.7221 131.059 50.8371C131.944 49.9521 132.829 49.0671 133.969 47.9271L132.555 46.5129C131.415 47.6529 130.53 48.5379 129.645 49.4229C128.76 50.3079 127.875 51.1929 126.735 52.3329L128.149 53.7471ZM133.262 48.22H158.162V46.22H133.262V48.22ZM138.562 58.14V75.42H140.562V58.14H138.562ZM139.562 76.42H163.982V74.42H139.562V76.42ZM162.982 75.42V78.18H164.982V75.42H162.982ZM163.275 77.4729C160.995 79.7529 159.735 81.0129 157.455 83.2929L158.869 84.7071C161.149 82.4271 162.409 81.1671 164.689 78.8871L163.275 77.4729ZM158.162 83H133.262V85H158.162V83ZM133.969 83.2929C131.689 81.0129 130.429 79.7529 128.149 77.4729L126.735 78.8871C129.015 81.1671 130.275 82.4271 132.555 84.7071L133.969 83.2929ZM128.442 78.18V58.14H126.442V78.18H128.442ZM127.442 59.14H139.562V57.14H127.442V59.14ZM198.726 42.06V41.06H198.312L198.019 41.3529L198.726 42.06ZM227.886 42.06H228.886V41.06H227.886V42.06ZM227.886 50.64V51.64H228.886V50.64H227.886ZM204.966 50.64V49.64H203.966V50.64H204.966ZM204.966 73.08V74.08H205.966V73.08H204.966ZM192.846 73.08H191.846V74.08H192.846V73.08ZM192.846 47.94L192.139 47.2329L191.846 47.5258V47.94H192.846ZM207.486 66.72H206.486V67.72H207.486V66.72ZM207.486 58.14V57.14H206.486V58.14H207.486ZM225.366 58.14H226.366V57.14H225.366V58.14ZM225.366 66.72V67.72H226.366V66.72H225.366ZM192.846 78.12H191.846V78.5342L192.139 78.8271L192.846 78.12ZM192.846 75.42V74.42H191.846V75.42H192.846ZM227.886 75.42H228.886V74.42H227.886V75.42ZM227.886 84V85H228.886V84H227.886ZM198.726 84L198.019 84.7071L198.312 85H198.726V84ZM198.726 43.06H227.886V41.06H198.726V43.06ZM226.886 42.06V50.64H228.886V42.06H226.886ZM227.886 49.64H204.966V51.64H227.886V49.64ZM203.966 50.64V73.08H205.966V50.64H203.966ZM204.966 72.08H192.846V74.08H204.966V72.08ZM193.846 73.08V47.94H191.846V73.08H193.846ZM193.554 48.6471C194.694 47.5071 195.594 46.6071 196.494 45.7071C197.394 44.8071 198.294 43.9071 199.434 42.7671L198.019 41.3529C196.879 42.4929 195.979 43.3929 195.079 44.2929C194.179 45.1929 193.279 46.0929 192.139 47.2329L193.554 48.6471ZM208.486 66.72V58.14H206.486V66.72H208.486ZM207.486 59.14H225.366V57.14H207.486V59.14ZM224.366 58.14V66.72H226.366V58.14H224.366ZM225.366 65.72H207.486V67.72H225.366V65.72ZM193.846 78.12V75.42H191.846V78.12H193.846ZM192.846 76.42H227.886V74.42H192.846V76.42ZM226.886 75.42V84H228.886V75.42H226.886ZM227.886 83H198.726V85H227.886V83ZM199.434 83.2929C198.294 82.1529 197.394 81.2529 196.494 80.3529C195.594 79.4529 194.694 78.5529 193.554 77.4129L192.139 78.8271C193.279 79.9671 194.179 80.8671 195.079 81.7671C195.979 82.6671 196.879 83.5671 198.019 84.7071L199.434 83.2929ZM247.273 33.18H248.273V32.18H247.273V33.18ZM247.273 84V85H248.273V84H247.273ZM235.093 84H234.093V85H235.093V84ZM235.093 33.18V32.18H234.093V33.18H235.093ZM246.273 33.18V84H248.273V33.18H246.273ZM247.273 83H235.093V85H247.273V83ZM236.093 84V33.18H234.093V84H236.093ZM235.093 34.18H247.273V32.18H235.093V34.18ZM291.658 70.68V71.68H292.658V70.68H291.658ZM267.238 70.68V69.68H266.238V70.68H267.238ZM267.238 75.42H266.238V76.42H267.238V75.42ZM291.658 75.42H292.658V74.42H291.658V75.42ZM291.658 84V85H292.658V84H291.658ZM260.938 84L260.23 84.7071L260.523 85H260.938V84ZM255.118 78.18H254.118V78.5942L254.41 78.8871L255.118 78.18ZM255.118 58.14V57.14H254.118V58.14H255.118ZM267.238 58.14H268.238V57.14H267.238V58.14ZM267.238 62.1H266.238V63.1H267.238V62.1ZM279.538 62.1V63.1H280.538V62.1H279.538ZM279.538 55.8H280.538V54.8H279.538V55.8ZM255.118 55.8H254.118V56.8H255.118V55.8ZM255.118 53.04L254.41 52.3329L254.118 52.6258V53.04H255.118ZM260.938 47.22V46.22H260.523L260.23 46.5129L260.938 47.22ZM285.838 47.22L286.507 46.4767L286.221 46.22H285.838V47.22ZM287.398 48.78L288.112 48.0807L288.105 48.0729L287.398 48.78ZM290.098 51.54L289.383 52.2393L289.39 52.2471L290.098 51.54ZM291.658 53.1H292.658V52.7163L292.401 52.431L291.658 53.1ZM291.658 69.68H267.238V71.68H291.658V69.68ZM266.238 70.68V75.42H268.238V70.68H266.238ZM267.238 76.42H291.658V74.42H267.238V76.42ZM290.658 75.42V84H292.658V75.42H290.658ZM291.658 83H260.938V85H291.658V83ZM261.645 83.2929C259.365 81.0129 258.105 79.7529 255.825 77.4729L254.41 78.8871C256.69 81.1671 257.95 82.4271 260.23 84.7071L261.645 83.2929ZM256.118 78.18V58.14H254.118V78.18H256.118ZM255.118 59.14H267.238V57.14H255.118V59.14ZM266.238 58.14V62.1H268.238V58.14H266.238ZM267.238 63.1H279.538V61.1H267.238V63.1ZM280.538 62.1V55.8H278.538V62.1H280.538ZM279.538 54.8H255.118V56.8H279.538V54.8ZM256.118 55.8V53.04H254.118V55.8H256.118ZM255.825 53.7471C256.965 52.6071 257.85 51.7221 258.735 50.8371C259.62 49.9521 260.505 49.0671 261.645 47.9271L260.23 46.5129C259.09 47.6529 258.205 48.5379 257.32 49.4229C256.435 50.3079 255.55 51.1929 254.41 52.3329L255.825 53.7471ZM260.938 48.22H285.838V46.22H260.938V48.22ZM285.169 47.9633C285.747 48.4834 286.155 48.9512 286.69 49.4871L288.105 48.0729C287.681 47.6488 287.129 47.0366 286.507 46.4767L285.169 47.9633ZM286.683 49.4793L289.383 52.2393L290.812 50.8407L288.112 48.0807L286.683 49.4793ZM289.39 52.2471C289.926 52.783 290.394 53.1911 290.914 53.769L292.401 52.431C291.841 51.8089 291.229 51.257 290.805 50.8329L289.39 52.2471ZM290.658 53.1V70.68H292.658V53.1H290.658ZM299.006 55.8H298.006V56.8H299.006V55.8ZM299.006 53.04L298.299 52.3329L298.006 52.6258V53.04H299.006ZM304.826 47.22V46.22H304.411L304.119 46.5129L304.826 47.22ZM334.286 47.22H335.286V46.22H334.286V47.22ZM334.286 55.8V56.8H335.286V55.8H334.286ZM311.126 58.14H312.126V57.14H311.126V58.14ZM311.126 75.42H310.126V76.42H311.126V75.42ZM334.286 75.42H335.286V74.42H334.286V75.42ZM334.286 84V85H335.286V84H334.286ZM304.826 84L304.119 84.7071L304.411 85H304.826V84ZM299.006 78.18H298.006V78.5942L298.299 78.8871L299.006 78.18ZM299.006 58.14V57.14H298.006V58.14H299.006ZM300.006 55.8V53.04H298.006V55.8H300.006ZM299.713 53.7471C300.853 52.6071 301.738 51.7221 302.623 50.8371C303.508 49.9521 304.393 49.0671 305.533 47.9271L304.119 46.5129C302.979 47.6529 302.094 48.5379 301.209 49.4229C300.324 50.3079 299.439 51.1929 298.299 52.3329L299.713 53.7471ZM304.826 48.22H334.286V46.22H304.826V48.22ZM333.286 47.22V55.8H335.286V47.22H333.286ZM334.286 54.8H299.006V56.8H334.286V54.8ZM310.126 58.14V75.42H312.126V58.14H310.126ZM311.126 76.42H334.286V74.42H311.126V76.42ZM333.286 75.42V84H335.286V75.42H333.286ZM334.286 83H304.826V85H334.286V83ZM305.533 83.2929C303.253 81.0129 301.993 79.7529 299.713 77.4729L298.299 78.8871C300.579 81.1671 301.839 82.4271 304.119 84.7071L305.533 83.2929ZM300.006 78.18V58.14H298.006V78.18H300.006ZM299.006 59.14H311.126V57.14H299.006V59.14ZM365.197 55.8V56.8H366.197V55.8H365.197ZM339.157 55.8H338.157V56.8H339.157V55.8ZM339.157 51L338.604 50.1674L338.157 50.4642V51H339.157ZM352.597 42.06V41.06H352.295L352.044 41.2274L352.597 42.06ZM357.157 42.06H358.157V41.06H357.157V42.06ZM357.157 47.22H356.157V48.22H357.157V47.22ZM365.197 47.22H366.197V46.22H365.197V47.22ZM357.157 58.14H358.157V57.14H357.157V58.14ZM357.157 75.42H356.157V76.42H357.157V75.42ZM367.717 75.42H368.717V74.42H367.717V75.42ZM367.717 84V85H368.717V84H367.717ZM350.857 84L350.15 84.7071L350.443 85H350.857V84ZM345.037 78.18H344.037V78.5942L344.33 78.8871L345.037 78.18ZM345.037 58.14V57.14H344.037V58.14H345.037ZM365.197 54.8H339.157V56.8H365.197V54.8ZM340.157 55.8V51H338.157V55.8H340.157ZM339.711 51.8326L353.151 42.8926L352.044 41.2274L338.604 50.1674L339.711 51.8326ZM352.597 43.06H357.157V41.06H352.597V43.06ZM356.157 42.06V47.22H358.157V42.06H356.157ZM357.157 48.22H365.197V46.22H357.157V48.22ZM364.197 47.22V55.8H366.197V47.22H364.197ZM356.157 58.14V75.42H358.157V58.14H356.157ZM357.157 76.42H367.717V74.42H357.157V76.42ZM366.717 75.42V84H368.717V75.42H366.717ZM367.717 83H350.857V85H367.717V83ZM351.565 83.2929C349.285 81.0129 348.025 79.7529 345.745 77.4729L344.33 78.8871C346.61 81.1671 347.87 82.4271 350.15 84.7071L351.565 83.2929ZM346.037 78.18V58.14H344.037V78.18H346.037ZM345.037 59.14H357.157V57.14H345.037V59.14ZM401.325 47.22L401.976 46.4607L401.695 46.22H401.325V47.22ZM402.345 48.3L401.577 48.9402L401.606 48.975L401.638 49.0071L402.345 48.3ZM405.225 51.18H406.225V50.7658L405.932 50.4729L405.225 51.18ZM405.225 55.8V56.8H406.225V55.8H405.225ZM373.725 55.8H372.725V56.8H373.725V55.8ZM373.725 47.22V46.22H372.725V47.22H373.725ZM373.725 84H372.725V85H373.725V84ZM373.725 58.14V57.14H372.725V58.14H373.725ZM385.845 58.14H386.845V57.14H385.845V58.14ZM385.845 84V85H386.845V84H385.845ZM400.675 47.9793C401.023 48.278 401.275 48.5774 401.577 48.9402L403.114 47.6598C402.816 47.3026 402.468 46.882 401.976 46.4607L400.675 47.9793ZM401.638 49.0071L404.518 51.8871L405.932 50.4729L403.052 47.5929L401.638 49.0071ZM404.225 51.18V55.8H406.225V51.18H404.225ZM405.225 54.8H373.725V56.8H405.225V54.8ZM374.725 55.8V47.22H372.725V55.8H374.725ZM373.725 48.22H401.325V46.22H373.725V48.22ZM374.725 84V58.14H372.725V84H374.725ZM373.725 59.14H385.845V57.14H373.725V59.14ZM384.845 58.14V84H386.845V58.14H384.845ZM385.845 83H373.725V85H385.845V83ZM441.404 47.22L442.111 46.5129L441.818 46.22H441.404V47.22ZM447.224 53.04H448.224V52.6258L447.931 52.3329L447.224 53.04ZM447.224 73.08V74.08H448.224V73.08H447.224ZM435.104 73.08H434.104V74.08H435.104V73.08ZM435.104 55.8H436.104V54.8H435.104V55.8ZM410.684 55.8H409.684V56.8H410.684V55.8ZM410.684 53.04L409.977 52.3329L409.684 52.6258V53.04H410.684ZM416.504 47.22V46.22H416.09L415.797 46.5129L416.504 47.22ZM422.804 58.14H423.804V57.14H422.804V58.14ZM422.804 75.42H421.804V76.42H422.804V75.42ZM447.224 75.42H448.224V74.42H447.224V75.42ZM447.224 78.18L447.931 78.8871L448.224 78.5942V78.18H447.224ZM441.404 84V85H441.818L442.111 84.7071L441.404 84ZM416.504 84L415.797 84.7071L416.09 85H416.504V84ZM410.684 78.18H409.684V78.5942L409.977 78.8871L410.684 78.18ZM410.684 58.14V57.14H409.684V58.14H410.684ZM440.697 47.9271L446.517 53.7471L447.931 52.3329L442.111 46.5129L440.697 47.9271ZM446.224 53.04V73.08H448.224V53.04H446.224ZM447.224 72.08H435.104V74.08H447.224V72.08ZM436.104 73.08V55.8H434.104V73.08H436.104ZM435.104 54.8H410.684V56.8H435.104V54.8ZM411.684 55.8V53.04H409.684V55.8H411.684ZM411.391 53.7471C412.531 52.6071 413.416 51.7221 414.301 50.8371C415.186 49.9521 416.071 49.0671 417.211 47.9271L415.797 46.5129C414.657 47.6529 413.772 48.5379 412.887 49.4229C412.002 50.3079 411.117 51.1929 409.977 52.3329L411.391 53.7471ZM416.504 48.22H441.404V46.22H416.504V48.22ZM421.804 58.14V75.42H423.804V58.14H421.804ZM422.804 76.42H447.224V74.42H422.804V76.42ZM446.224 75.42V78.18H448.224V75.42H446.224ZM446.517 77.4729C444.237 79.7529 442.977 81.0129 440.697 83.2929L442.111 84.7071C444.391 82.4271 445.651 81.1671 447.931 78.8871L446.517 77.4729ZM441.404 83H416.504V85H441.404V83ZM417.211 83.2929C414.931 81.0129 413.671 79.7529 411.391 77.4729L409.977 78.8871C412.257 81.1671 413.517 82.4271 415.797 84.7071L417.211 83.2929ZM411.684 78.18V58.14H409.684V78.18H411.684ZM410.684 59.14H422.804V57.14H410.684V59.14ZM485.832 47.22L486.539 46.5129L486.246 46.22H485.832V47.22ZM491.652 53.04H492.652V52.6258L492.359 52.3329L491.652 53.04ZM491.652 84V85H492.652V84H491.652ZM479.532 84H478.532V85H479.532V84ZM479.532 55.8H480.532V54.8H479.532V55.8ZM455.112 55.8H454.112V56.8H455.112V55.8ZM455.112 47.22V46.22H454.112V47.22H455.112ZM455.112 84H454.112V85H455.112V84ZM455.112 58.14V57.14H454.112V58.14H455.112ZM467.232 58.14H468.232V57.14H467.232V58.14ZM467.232 84V85H468.232V84H467.232ZM485.125 47.9271L490.945 53.7471L492.359 52.3329L486.539 46.5129L485.125 47.9271ZM490.652 53.04V84H492.652V53.04H490.652ZM491.652 83H479.532V85H491.652V83ZM480.532 84V55.8H478.532V84H480.532ZM479.532 54.8H455.112V56.8H479.532V54.8ZM456.112 55.8V47.22H454.112V55.8H456.112ZM455.112 48.22H485.832V46.22H455.112V48.22ZM456.112 84V58.14H454.112V84H456.112ZM455.112 59.14H467.232V57.14H455.112V59.14ZM466.232 58.14V84H468.232V58.14H466.232ZM467.232 83H455.112V85H467.232V83ZM512.359 32.1H513.359V31.1H512.359V32.1ZM512.359 40.68V41.68H513.359V40.68H512.359ZM499.819 40.68H498.819V41.68H499.819V40.68ZM499.819 32.1V31.1H498.819V32.1H499.819ZM499.999 84H498.999V85H499.999V84ZM499.999 47.22V46.22H498.999V47.22H499.999ZM512.119 47.22H513.119V46.22H512.119V47.22ZM512.119 84V85H513.119V84H512.119ZM511.359 32.1V40.68H513.359V32.1H511.359ZM512.359 39.68H499.819V41.68H512.359V39.68ZM500.819 40.68V32.1H498.819V40.68H500.819ZM499.819 33.1H512.359V31.1H499.819V33.1ZM500.999 84V47.22H498.999V84H500.999ZM499.999 48.22H512.119V46.22H499.999V48.22ZM511.119 47.22V84H513.119V47.22H511.119ZM512.119 83H499.999V85H512.119V83ZM520.197 55.8H519.197V56.8H520.197V55.8ZM520.197 53.04L519.49 52.3329L519.197 52.6258V53.04H520.197ZM526.017 47.22V46.22H525.603L525.31 46.5129L526.017 47.22ZM555.477 47.22H556.477V46.22H555.477V47.22ZM555.477 55.8V56.8H556.477V55.8H555.477ZM532.317 58.14H533.317V57.14H532.317V58.14ZM532.317 75.42H531.317V76.42H532.317V75.42ZM555.477 75.42H556.477V74.42H555.477V75.42ZM555.477 84V85H556.477V84H555.477ZM526.017 84L525.31 84.7071L525.603 85H526.017V84ZM520.197 78.18H519.197V78.5942L519.49 78.8871L520.197 78.18ZM520.197 58.14V57.14H519.197V58.14H520.197ZM521.197 55.8V53.04H519.197V55.8H521.197ZM520.904 53.7471C522.044 52.6071 522.929 51.7221 523.814 50.8371C524.699 49.9521 525.584 49.0671 526.724 47.9271L525.31 46.5129C524.17 47.6529 523.285 48.5379 522.4 49.4229C521.515 50.3079 520.63 51.1929 519.49 52.3329L520.904 53.7471ZM526.017 48.22H555.477V46.22H526.017V48.22ZM554.477 47.22V55.8H556.477V47.22H554.477ZM555.477 54.8H520.197V56.8H555.477V54.8ZM531.317 58.14V75.42H533.317V58.14H531.317ZM532.317 76.42H555.477V74.42H532.317V76.42ZM554.477 75.42V84H556.477V75.42H554.477ZM555.477 83H526.017V85H555.477V83ZM526.724 83.2929C524.444 81.0129 523.184 79.7529 520.904 77.4729L519.49 78.8871C521.77 81.1671 523.03 82.4271 525.31 84.7071L526.724 83.2929ZM521.197 78.18V58.14H519.197V78.18H521.197ZM520.197 59.14H532.317V57.14H520.197V59.14ZM597.249 47.22H598.249V46.22H597.249V47.22ZM597.249 55.8V56.8H598.249V55.8H597.249ZM561.849 55.8H560.849V56.8H561.849V55.8ZM561.849 53.1L561.142 52.3929L560.849 52.6858V53.1H561.849ZM567.729 47.22V46.22H567.315L567.022 46.5129L567.729 47.22ZM592.569 60.84L593.238 60.0967L592.953 59.84H592.569V60.84ZM594.129 62.4L594.841 61.6978L594.836 61.6929L594.129 62.4ZM598.389 66.72H599.389V66.3099L599.101 66.0179L598.389 66.72ZM598.389 73.08V74.08H599.389V73.08H598.389ZM586.269 73.08H585.269V74.08H586.269V73.08ZM586.269 69.42H587.269V68.42H586.269V69.42ZM567.729 69.42L567.022 70.1271L567.315 70.42H567.729V69.42ZM561.849 63.54H560.849V63.9542L561.142 64.2471L561.849 63.54ZM561.849 58.14V57.14H560.849V58.14H561.849ZM573.969 58.14H574.969V57.14H573.969V58.14ZM573.969 60.84H572.969V61.84H573.969V60.84ZM562.809 84H561.809V85H562.809V84ZM562.809 75.42V74.42H561.809V75.42H562.809ZM598.389 75.42H599.389V74.42H598.389V75.42ZM598.389 78.12L599.096 78.8271L599.389 78.5342V78.12H598.389ZM596.829 79.68L596.122 78.9728L596.114 78.9807L596.829 79.68ZM594.129 82.44L594.836 83.1471L594.844 83.1393L594.129 82.44ZM592.569 84V85H592.983L593.276 84.7071L592.569 84ZM596.249 47.22V55.8H598.249V47.22H596.249ZM597.249 54.8H561.849V56.8H597.249V54.8ZM562.849 55.8V53.1H560.849V55.8H562.849ZM562.556 53.8071C564.836 51.5271 566.156 50.2071 568.436 47.9271L567.022 46.5129C564.742 48.7929 563.422 50.1129 561.142 52.3929L562.556 53.8071ZM567.729 48.22H597.249V46.22H567.729V48.22ZM591.9 61.5833C592.478 62.1034 592.886 62.5712 593.422 63.1071L594.836 61.6929C594.412 61.2688 593.86 60.6566 593.238 60.0967L591.9 61.5833ZM593.417 63.1021L597.677 67.4221L599.101 66.0179L594.841 61.6979L593.417 63.1021ZM597.389 66.72V73.08H599.389V66.72H597.389ZM598.389 72.08H586.269V74.08H598.389V72.08ZM587.269 73.08V69.42H585.269V73.08H587.269ZM586.269 68.42H567.729V70.42H586.269V68.42ZM568.436 68.7129C566.156 66.4329 564.836 65.1129 562.556 62.8329L561.142 64.2471C563.422 66.5271 564.742 67.8471 567.022 70.1271L568.436 68.7129ZM562.849 63.54V58.14H560.849V63.54H562.849ZM561.849 59.14H573.969V57.14H561.849V59.14ZM572.969 58.14V60.84H574.969V58.14H572.969ZM573.969 61.84H592.569V59.84H573.969V61.84ZM563.809 84V75.42H561.809V84H563.809ZM562.809 76.42H598.389V74.42H562.809V76.42ZM597.389 75.42V78.12H599.389V75.42H597.389ZM597.682 77.4129C597.142 77.9529 596.602 78.4929 596.122 78.9729L597.536 80.3871C598.016 79.9071 598.556 79.3671 599.096 78.8271L597.682 77.4129ZM596.114 78.9807L593.414 81.7407L594.844 83.1393L597.544 80.3793L596.114 78.9807ZM593.422 81.7329C592.942 82.2129 592.462 82.6929 591.862 83.2929L593.276 84.7071C593.876 84.1071 594.356 83.6271 594.836 83.1471L593.422 81.7329ZM592.569 83H562.809V85H592.569V83Z" fill="#E2E53C" mask="url(#path-1-outside-1_4_55)"/>
<path d="M17.1876 42.06H18.1876V41.06H17.1876V42.06ZM17.1876 73.08V74.08H18.1876V73.08H17.1876ZM5.06758 73.08H4.06758V74.08H5.06758V73.08ZM5.06758 42.06V41.06H4.06758V42.06H5.06758ZM5.06758 75.42V74.42H4.06758V75.42H5.06758ZM33.8076 75.42H34.8076V74.42H33.8076V75.42ZM33.8076 84V85H34.8076V84H33.8076ZM10.9476 84L10.2405 84.7071L10.5334 85H10.9476V84ZM5.06758 78.12H4.06758V78.5342L4.36047 78.8271L5.06758 78.12ZM16.1876 42.06V73.08H18.1876V42.06H16.1876ZM17.1876 72.08H5.06758V74.08H17.1876V72.08ZM6.06758 73.08V42.06H4.06758V73.08H6.06758ZM5.06758 43.06H17.1876V41.06H5.06758V43.06ZM5.06758 76.42H33.8076V74.42H5.06758V76.42ZM32.8076 75.42V84H34.8076V75.42H32.8076ZM33.8076 83H10.9476V85H33.8076V83ZM11.6547 83.2929C10.5147 82.1529 9.61469 81.2529 8.71469 80.3529C7.81469 79.4529 6.91469 78.5529 5.77469 77.4129L4.36047 78.8271C5.50047 79.9671 6.40047 80.8671 7.30047 81.7671C8.20047 82.6671 9.10047 83.5671 10.2405 84.7071L11.6547 83.2929ZM6.06758 78.12V75.42H4.06758V78.12H6.06758ZM69.9196 47.22L70.6267 46.5129L70.3338 46.22H69.9196V47.22ZM75.7396 53.04H76.7396V52.6258L76.4467 52.3329L75.7396 53.04ZM75.7396 73.08V74.08H76.7396V73.08H75.7396ZM63.6196 73.08H62.6196V74.08H63.6196V73.08ZM63.6196 55.8H64.6196V54.8H63.6196V55.8ZM39.1996 55.8H38.1996V56.8H39.1996V55.8ZM39.1996 53.04L38.4925 52.3329L38.1996 52.6258V53.04H39.1996ZM45.0196 47.22V46.22H44.6054L44.3125 46.5129L45.0196 47.22ZM51.3196 58.14H52.3196V57.14H51.3196V58.14ZM51.3196 75.42H50.3196V76.42H51.3196V75.42ZM75.7396 75.42H76.7396V74.42H75.7396V75.42ZM75.7396 78.18L76.4467 78.8871L76.7396 78.5942V78.18H75.7396ZM69.9196 84V85H70.3338L70.6267 84.7071L69.9196 84ZM45.0196 84L44.3125 84.7071L44.6054 85H45.0196V84ZM39.1996 78.18H38.1996V78.5942L38.4925 78.8871L39.1996 78.18ZM39.1996 58.14V57.14H38.1996V58.14H39.1996ZM69.2125 47.9271L75.0325 53.7471L76.4467 52.3329L70.6267 46.5129L69.2125 47.9271ZM74.7396 53.04V73.08H76.7396V53.04H74.7396ZM75.7396 72.08H63.6196V74.08H75.7396V72.08ZM64.6196 73.08V55.8H62.6196V73.08H64.6196ZM63.6196 54.8H39.1996V56.8H63.6196V54.8ZM40.1996 55.8V53.04H38.1996V55.8H40.1996ZM39.9067 53.7471C41.0467 52.6071 41.9317 51.7221 42.8167 50.8371C43.7017 49.9521 44.5867 49.0671 45.7267 47.9271L44.3125 46.5129C43.1725 47.6529 42.2875 48.5379 41.4025 49.4229C40.5175 50.3079 39.6325 51.1929 38.4925 52.3329L39.9067 53.7471ZM45.0196 48.22H69.9196V46.22H45.0196V48.22ZM50.3196 58.14V75.42H52.3196V58.14H50.3196ZM51.3196 76.42H75.7396V74.42H51.3196V76.42ZM74.7396 75.42V78.18H76.7396V75.42H74.7396ZM75.0325 77.4729C72.7525 79.7529 71.4925 81.0129 69.2125 83.2929L70.6267 84.7071C72.9067 82.4271 74.1667 81.1671 76.4467 78.8871L75.0325 77.4729ZM69.9196 83H45.0196V85H69.9196V83ZM45.7267 83.2929C43.4467 81.0129 42.1867 79.7529 39.9067 77.4729L38.4925 78.8871C40.7725 81.1671 42.0325 82.4271 44.3125 84.7071L45.7267 83.2929ZM40.1996 78.18V58.14H38.1996V78.18H40.1996ZM39.1996 59.14H51.3196V57.14H39.1996V59.14ZM119.628 55.8V56.8H120.628V55.8H119.628ZM95.2077 55.8V54.8H94.2077V55.8H95.2077ZM95.2077 75.42H94.2077V76.42H95.2077V75.42ZM107.508 75.42V76.42H108.508V75.42H107.508ZM107.508 58.14V57.14H106.508V58.14H107.508ZM119.628 58.14H120.628V57.14H119.628V58.14ZM119.628 90.78L120.335 91.4871L120.628 91.1942V90.78H119.628ZM113.808 96.6V97.6H114.222L114.515 97.3071L113.808 96.6ZM85.6077 96.6H84.6077V97.6H85.6077V96.6ZM85.6077 88.02V87.02H84.6077V88.02H85.6077ZM107.508 88.02V89.02H108.508V88.02H107.508ZM107.508 84H108.508V83H107.508V84ZM88.9077 84L88.1644 84.669L88.4624 85H88.9077V84ZM87.3477 82.44L88.0549 81.7328L88.047 81.7252L87.3477 82.44ZM84.5877 79.74L83.8806 80.4472L83.8884 80.4548L84.5877 79.74ZM83.0277 78.18H82.0277V78.6254L82.3588 78.9233L83.0277 78.18ZM83.0277 53.04L82.3206 52.3329L82.0277 52.6258V53.04H83.0277ZM84.5877 51.48L83.8884 50.7651L83.8806 50.7729L84.5877 51.48ZM87.3477 48.78L88.0471 49.4949L88.0548 49.4871L87.3477 48.78ZM88.9077 47.22V46.22H88.4935L88.2006 46.5129L88.9077 47.22ZM119.628 47.22H120.628V46.22H119.628V47.22ZM119.628 54.8H95.2077V56.8H119.628V54.8ZM94.2077 55.8V75.42H96.2077V55.8H94.2077ZM95.2077 76.42H107.508V74.42H95.2077V76.42ZM108.508 75.42V58.14H106.508V75.42H108.508ZM107.508 59.14H119.628V57.14H107.508V59.14ZM118.628 58.14V90.78H120.628V58.14H118.628ZM118.921 90.0729C117.781 91.2129 116.896 92.0979 116.011 92.9829C115.126 93.8679 114.241 94.7529 113.101 95.8929L114.515 97.3071C115.655 96.1671 116.54 95.2821 117.425 94.3971C118.31 93.5121 119.195 92.6271 120.335 91.4871L118.921 90.0729ZM113.808 95.6H85.6077V97.6H113.808V95.6ZM86.6077 96.6V88.02H84.6077V96.6H86.6077ZM85.6077 89.02H107.508V87.02H85.6077V89.02ZM108.508 88.02V84H106.508V88.02H108.508ZM107.508 83H88.9077V85H107.508V83ZM89.651 83.331C89.0911 82.7089 88.479 82.157 88.0548 81.7329L86.6406 83.1471C87.1765 83.683 87.6443 84.0911 88.1644 84.669L89.651 83.331ZM88.047 81.7252L85.287 79.0252L83.8884 80.4548L86.6484 83.1548L88.047 81.7252ZM85.2948 79.0329C84.8707 78.6088 84.3188 77.9966 83.6967 77.4367L82.3588 78.9233C82.9367 79.4434 83.3447 79.9112 83.8806 80.4471L85.2948 79.0329ZM84.0277 78.18V53.04H82.0277V78.18H84.0277ZM83.7348 53.7471C84.3348 53.1471 84.8148 52.6671 85.2948 52.1871L83.8806 50.7729C83.4006 51.2529 82.9206 51.7329 82.3206 52.3329L83.7348 53.7471ZM85.287 52.1948L88.047 49.4948L86.6484 48.0652L83.8884 50.7652L85.287 52.1948ZM88.0548 49.4871C88.5348 49.0071 89.0748 48.4671 89.6148 47.9271L88.2006 46.5129C87.6606 47.0529 87.1206 47.5929 86.6406 48.0729L88.0548 49.4871ZM88.9077 48.22H119.628V46.22H88.9077V48.22ZM118.628 47.22V55.8H120.628V47.22H118.628ZM158.162 47.22L158.869 46.5129L158.576 46.22H158.162V47.22ZM163.982 53.04H164.982V52.6258L164.689 52.3329L163.982 53.04ZM163.982 73.08V74.08H164.982V73.08H163.982ZM151.862 73.08H150.862V74.08H151.862V73.08ZM151.862 55.8H152.862V54.8H151.862V55.8ZM127.442 55.8H126.442V56.8H127.442V55.8ZM127.442 53.04L126.735 52.3329L126.442 52.6258V53.04H127.442ZM133.262 47.22V46.22H132.848L132.555 46.5129L133.262 47.22ZM139.562 58.14H140.562V57.14H139.562V58.14ZM139.562 75.42H138.562V76.42H139.562V75.42ZM163.982 75.42H164.982V74.42H163.982V75.42ZM163.982 78.18L164.689 78.8871L164.982 78.5942V78.18H163.982ZM158.162 84V85H158.576L158.869 84.7071L158.162 84ZM133.262 84L132.555 84.7071L132.848 85H133.262V84ZM127.442 78.18H126.442V78.5942L126.735 78.8871L127.442 78.18ZM127.442 58.14V57.14H126.442V58.14H127.442ZM157.455 47.9271L163.275 53.7471L164.689 52.3329L158.869 46.5129L157.455 47.9271ZM162.982 53.04V73.08H164.982V53.04H162.982ZM163.982 72.08H151.862V74.08H163.982V72.08ZM152.862 73.08V55.8H150.862V73.08H152.862ZM151.862 54.8H127.442V56.8H151.862V54.8ZM128.442 55.8V53.04H126.442V55.8H128.442ZM128.149 53.7471C129.289 52.6071 130.174 51.7221 131.059 50.8371C131.944 49.9521 132.829 49.0671 133.969 47.9271L132.555 46.5129C131.415 47.6529 130.53 48.5379 129.645 49.4229C128.76 50.3079 127.875 51.1929 126.735 52.3329L128.149 53.7471ZM133.262 48.22H158.162V46.22H133.262V48.22ZM138.562 58.14V75.42H140.562V58.14H138.562ZM139.562 76.42H163.982V74.42H139.562V76.42ZM162.982 75.42V78.18H164.982V75.42H162.982ZM163.275 77.4729C160.995 79.7529 159.735 81.0129 157.455 83.2929L158.869 84.7071C161.149 82.4271 162.409 81.1671 164.689 78.8871L163.275 77.4729ZM158.162 83H133.262V85H158.162V83ZM133.969 83.2929C131.689 81.0129 130.429 79.7529 128.149 77.4729L126.735 78.8871C129.015 81.1671 130.275 82.4271 132.555 84.7071L133.969 83.2929ZM128.442 78.18V58.14H126.442V78.18H128.442ZM127.442 59.14H139.562V57.14H127.442V59.14ZM198.726 42.06V41.06H198.312L198.019 41.3529L198.726 42.06ZM227.886 42.06H228.886V41.06H227.886V42.06ZM227.886 50.64V51.64H228.886V50.64H227.886ZM204.966 50.64V49.64H203.966V50.64H204.966ZM204.966 73.08V74.08H205.966V73.08H204.966ZM192.846 73.08H191.846V74.08H192.846V73.08ZM192.846 47.94L192.139 47.2329L191.846 47.5258V47.94H192.846ZM207.486 66.72H206.486V67.72H207.486V66.72ZM207.486 58.14V57.14H206.486V58.14H207.486ZM225.366 58.14H226.366V57.14H225.366V58.14ZM225.366 66.72V67.72H226.366V66.72H225.366ZM192.846 78.12H191.846V78.5342L192.139 78.8271L192.846 78.12ZM192.846 75.42V74.42H191.846V75.42H192.846ZM227.886 75.42H228.886V74.42H227.886V75.42ZM227.886 84V85H228.886V84H227.886ZM198.726 84L198.019 84.7071L198.312 85H198.726V84ZM198.726 43.06H227.886V41.06H198.726V43.06ZM226.886 42.06V50.64H228.886V42.06H226.886ZM227.886 49.64H204.966V51.64H227.886V49.64ZM203.966 50.64V73.08H205.966V50.64H203.966ZM204.966 72.08H192.846V74.08H204.966V72.08ZM193.846 73.08V47.94H191.846V73.08H193.846ZM193.554 48.6471C194.694 47.5071 195.594 46.6071 196.494 45.7071C197.394 44.8071 198.294 43.9071 199.434 42.7671L198.019 41.3529C196.879 42.4929 195.979 43.3929 195.079 44.2929C194.179 45.1929 193.279 46.0929 192.139 47.2329L193.554 48.6471ZM208.486 66.72V58.14H206.486V66.72H208.486ZM207.486 59.14H225.366V57.14H207.486V59.14ZM224.366 58.14V66.72H226.366V58.14H224.366ZM225.366 65.72H207.486V67.72H225.366V65.72ZM193.846 78.12V75.42H191.846V78.12H193.846ZM192.846 76.42H227.886V74.42H192.846V76.42ZM226.886 75.42V84H228.886V75.42H226.886ZM227.886 83H198.726V85H227.886V83ZM199.434 83.2929C198.294 82.1529 197.394 81.2529 196.494 80.3529C195.594 79.4529 194.694 78.5529 193.554 77.4129L192.139 78.8271C193.279 79.9671 194.179 80.8671 195.079 81.7671C195.979 82.6671 196.879 83.5671 198.019 84.7071L199.434 83.2929ZM247.273 33.18H248.273V32.18H247.273V33.18ZM247.273 84V85H248.273V84H247.273ZM235.093 84H234.093V85H235.093V84ZM235.093 33.18V32.18H234.093V33.18H235.093ZM246.273 33.18V84H248.273V33.18H246.273ZM247.273 83H235.093V85H247.273V83ZM236.093 84V33.18H234.093V84H236.093ZM235.093 34.18H247.273V32.18H235.093V34.18ZM291.658 70.68V71.68H292.658V70.68H291.658ZM267.238 70.68V69.68H266.238V70.68H267.238ZM267.238 75.42H266.238V76.42H267.238V75.42ZM291.658 75.42H292.658V74.42H291.658V75.42ZM291.658 84V85H292.658V84H291.658ZM260.938 84L260.23 84.7071L260.523 85H260.938V84ZM255.118 78.18H254.118V78.5942L254.41 78.8871L255.118 78.18ZM255.118 58.14V57.14H254.118V58.14H255.118ZM267.238 58.14H268.238V57.14H267.238V58.14ZM267.238 62.1H266.238V63.1H267.238V62.1ZM279.538 62.1V63.1H280.538V62.1H279.538ZM279.538 55.8H280.538V54.8H279.538V55.8ZM255.118 55.8H254.118V56.8H255.118V55.8ZM255.118 53.04L254.41 52.3329L254.118 52.6258V53.04H255.118ZM260.938 47.22V46.22H260.523L260.23 46.5129L260.938 47.22ZM285.838 47.22L286.507 46.4767L286.221 46.22H285.838V47.22ZM287.398 48.78L288.112 48.0807L288.105 48.0729L287.398 48.78ZM290.098 51.54L289.383 52.2393L289.39 52.2471L290.098 51.54ZM291.658 53.1H292.658V52.7163L292.401 52.431L291.658 53.1ZM291.658 69.68H267.238V71.68H291.658V69.68ZM266.238 70.68V75.42H268.238V70.68H266.238ZM267.238 76.42H291.658V74.42H267.238V76.42ZM290.658 75.42V84H292.658V75.42H290.658ZM291.658 83H260.938V85H291.658V83ZM261.645 83.2929C259.365 81.0129 258.105 79.7529 255.825 77.4729L254.41 78.8871C256.69 81.1671 257.95 82.4271 260.23 84.7071L261.645 83.2929ZM256.118 78.18V58.14H254.118V78.18H256.118ZM255.118 59.14H267.238V57.14H255.118V59.14ZM266.238 58.14V62.1H268.238V58.14H266.238ZM267.238 63.1H279.538V61.1H267.238V63.1ZM280.538 62.1V55.8H278.538V62.1H280.538ZM279.538 54.8H255.118V56.8H279.538V54.8ZM256.118 55.8V53.04H254.118V55.8H256.118ZM255.825 53.7471C256.965 52.6071 257.85 51.7221 258.735 50.8371C259.62 49.9521 260.505 49.0671 261.645 47.9271L260.23 46.5129C259.09 47.6529 258.205 48.5379 257.32 49.4229C256.435 50.3079 255.55 51.1929 254.41 52.3329L255.825 53.7471ZM260.938 48.22H285.838V46.22H260.938V48.22ZM285.169 47.9633C285.747 48.4834 286.155 48.9512 286.69 49.4871L288.105 48.0729C287.681 47.6488 287.129 47.0366 286.507 46.4767L285.169 47.9633ZM286.683 49.4793L289.383 52.2393L290.812 50.8407L288.112 48.0807L286.683 49.4793ZM289.39 52.2471C289.926 52.783 290.394 53.1911 290.914 53.769L292.401 52.431C291.841 51.8089 291.229 51.257 290.805 50.8329L289.39 52.2471ZM290.658 53.1V70.68H292.658V53.1H290.658ZM299.006 55.8H298.006V56.8H299.006V55.8ZM299.006 53.04L298.299 52.3329L298.006 52.6258V53.04H299.006ZM304.826 47.22V46.22H304.411L304.119 46.5129L304.826 47.22ZM334.286 47.22H335.286V46.22H334.286V47.22ZM334.286 55.8V56.8H335.286V55.8H334.286ZM311.126 58.14H312.126V57.14H311.126V58.14ZM311.126 75.42H310.126V76.42H311.126V75.42ZM334.286 75.42H335.286V74.42H334.286V75.42ZM334.286 84V85H335.286V84H334.286ZM304.826 84L304.119 84.7071L304.411 85H304.826V84ZM299.006 78.18H298.006V78.5942L298.299 78.8871L299.006 78.18ZM299.006 58.14V57.14H298.006V58.14H299.006ZM300.006 55.8V53.04H298.006V55.8H300.006ZM299.713 53.7471C300.853 52.6071 301.738 51.7221 302.623 50.8371C303.508 49.9521 304.393 49.0671 305.533 47.9271L304.119 46.5129C302.979 47.6529 302.094 48.5379 301.209 49.4229C300.324 50.3079 299.439 51.1929 298.299 52.3329L299.713 53.7471ZM304.826 48.22H334.286V46.22H304.826V48.22ZM333.286 47.22V55.8H335.286V47.22H333.286ZM334.286 54.8H299.006V56.8H334.286V54.8ZM310.126 58.14V75.42H312.126V58.14H310.126ZM311.126 76.42H334.286V74.42H311.126V76.42ZM333.286 75.42V84H335.286V75.42H333.286ZM334.286 83H304.826V85H334.286V83ZM305.533 83.2929C303.253 81.0129 301.993 79.7529 299.713 77.4729L298.299 78.8871C300.579 81.1671 301.839 82.4271 304.119 84.7071L305.533 83.2929ZM300.006 78.18V58.14H298.006V78.18H300.006ZM299.006 59.14H311.126V57.14H299.006V59.14ZM365.197 55.8V56.8H366.197V55.8H365.197ZM339.157 55.8H338.157V56.8H339.157V55.8ZM339.157 51L338.604 50.1674L338.157 50.4642V51H339.157ZM352.597 42.06V41.06H352.295L352.044 41.2274L352.597 42.06ZM357.157 42.06H358.157V41.06H357.157V42.06ZM357.157 47.22H356.157V48.22H357.157V47.22ZM365.197 47.22H366.197V46.22H365.197V47.22ZM357.157 58.14H358.157V57.14H357.157V58.14ZM357.157 75.42H356.157V76.42H357.157V75.42ZM367.717 75.42H368.717V74.42H367.717V75.42ZM367.717 84V85H368.717V84H367.717ZM350.857 84L350.15 84.7071L350.443 85H350.857V84ZM345.037 78.18H344.037V78.5942L344.33 78.8871L345.037 78.18ZM345.037 58.14V57.14H344.037V58.14H345.037ZM365.197 54.8H339.157V56.8H365.197V54.8ZM340.157 55.8V51H338.157V55.8H340.157ZM339.711 51.8326L353.151 42.8926L352.044 41.2274L338.604 50.1674L339.711 51.8326ZM352.597 43.06H357.157V41.06H352.597V43.06ZM356.157 42.06V47.22H358.157V42.06H356.157ZM357.157 48.22H365.197V46.22H357.157V48.22ZM364.197 47.22V55.8H366.197V47.22H364.197ZM356.157 58.14V75.42H358.157V58.14H356.157ZM357.157 76.42H367.717V74.42H357.157V76.42ZM366.717 75.42V84H368.717V75.42H366.717ZM367.717 83H350.857V85H367.717V83ZM351.565 83.2929C349.285 81.0129 348.025 79.7529 345.745 77.4729L344.33 78.8871C346.61 81.1671 347.87 82.4271 350.15 84.7071L351.565 83.2929ZM346.037 78.18V58.14H344.037V78.18H346.037ZM345.037 59.14H357.157V57.14H345.037V59.14ZM401.325 47.22L401.976 46.4607L401.695 46.22H401.325V47.22ZM402.345 48.3L401.577 48.9402L401.606 48.975L401.638 49.0071L402.345 48.3ZM405.225 51.18H406.225V50.7658L405.932 50.4729L405.225 51.18ZM405.225 55.8V56.8H406.225V55.8H405.225ZM373.725 55.8H372.725V56.8H373.725V55.8ZM373.725 47.22V46.22H372.725V47.22H373.725ZM373.725 84H372.725V85H373.725V84ZM373.725 58.14V57.14H372.725V58.14H373.725ZM385.845 58.14H386.845V57.14H385.845V58.14ZM385.845 84V85H386.845V84H385.845ZM400.675 47.9793C401.023 48.278 401.275 48.5774 401.577 48.9402L403.114 47.6598C402.816 47.3026 402.468 46.882 401.976 46.4607L400.675 47.9793ZM401.638 49.0071L404.518 51.8871L405.932 50.4729L403.052 47.5929L401.638 49.0071ZM404.225 51.18V55.8H406.225V51.18H404.225ZM405.225 54.8H373.725V56.8H405.225V54.8ZM374.725 55.8V47.22H372.725V55.8H374.725ZM373.725 48.22H401.325V46.22H373.725V48.22ZM374.725 84V58.14H372.725V84H374.725ZM373.725 59.14H385.845V57.14H373.725V59.14ZM384.845 58.14V84H386.845V58.14H384.845ZM385.845 83H373.725V85H385.845V83ZM441.404 47.22L442.111 46.5129L441.818 46.22H441.404V47.22ZM447.224 53.04H448.224V52.6258L447.931 52.3329L447.224 53.04ZM447.224 73.08V74.08H448.224V73.08H447.224ZM435.104 73.08H434.104V74.08H435.104V73.08ZM435.104 55.8H436.104V54.8H435.104V55.8ZM410.684 55.8H409.684V56.8H410.684V55.8ZM410.684 53.04L409.977 52.3329L409.684 52.6258V53.04H410.684ZM416.504 47.22V46.22H416.09L415.797 46.5129L416.504 47.22ZM422.804 58.14H423.804V57.14H422.804V58.14ZM422.804 75.42H421.804V76.42H422.804V75.42ZM447.224 75.42H448.224V74.42H447.224V75.42ZM447.224 78.18L447.931 78.8871L448.224 78.5942V78.18H447.224ZM441.404 84V85H441.818L442.111 84.7071L441.404 84ZM416.504 84L415.797 84.7071L416.09 85H416.504V84ZM410.684 78.18H409.684V78.5942L409.977 78.8871L410.684 78.18ZM410.684 58.14V57.14H409.684V58.14H410.684ZM440.697 47.9271L446.517 53.7471L447.931 52.3329L442.111 46.5129L440.697 47.9271ZM446.224 53.04V73.08H448.224V53.04H446.224ZM447.224 72.08H435.104V74.08H447.224V72.08ZM436.104 73.08V55.8H434.104V73.08H436.104ZM435.104 54.8H410.684V56.8H435.104V54.8ZM411.684 55.8V53.04H409.684V55.8H411.684ZM411.391 53.7471C412.531 52.6071 413.416 51.7221 414.301 50.8371C415.186 49.9521 416.071 49.0671 417.211 47.9271L415.797 46.5129C414.657 47.6529 413.772 48.5379 412.887 49.4229C412.002 50.3079 411.117 51.1929 409.977 52.3329L411.391 53.7471ZM416.504 48.22H441.404V46.22H416.504V48.22ZM421.804 58.14V75.42H423.804V58.14H421.804ZM422.804 76.42H447.224V74.42H422.804V76.42ZM446.224 75.42V78.18H448.224V75.42H446.224ZM446.517 77.4729C444.237 79.7529 442.977 81.0129 440.697 83.2929L442.111 84.7071C444.391 82.4271 445.651 81.1671 447.931 78.8871L446.517 77.4729ZM441.404 83H416.504V85H441.404V83ZM417.211 83.2929C414.931 81.0129 413.671 79.7529 411.391 77.4729L409.977 78.8871C412.257 81.1671 413.517 82.4271 415.797 84.7071L417.211 83.2929ZM411.684 78.18V58.14H409.684V78.18H411.684ZM410.684 59.14H422.804V57.14H410.684V59.14ZM485.832 47.22L486.539 46.5129L486.246 46.22H485.832V47.22ZM491.652 53.04H492.652V52.6258L492.359 52.3329L491.652 53.04ZM491.652 84V85H492.652V84H491.652ZM479.532 84H478.532V85H479.532V84ZM479.532 55.8H480.532V54.8H479.532V55.8ZM455.112 55.8H454.112V56.8H455.112V55.8ZM455.112 47.22V46.22H454.112V47.22H455.112ZM455.112 84H454.112V85H455.112V84ZM455.112 58.14V57.14H454.112V58.14H455.112ZM467.232 58.14H468.232V57.14H467.232V58.14ZM467.232 84V85H468.232V84H467.232ZM485.125 47.9271L490.945 53.7471L492.359 52.3329L486.539 46.5129L485.125 47.9271ZM490.652 53.04V84H492.652V53.04H490.652ZM491.652 83H479.532V85H491.652V83ZM480.532 84V55.8H478.532V84H480.532ZM479.532 54.8H455.112V56.8H479.532V54.8ZM456.112 55.8V47.22H454.112V55.8H456.112ZM455.112 48.22H485.832V46.22H455.112V48.22ZM456.112 84V58.14H454.112V84H456.112ZM455.112 59.14H467.232V57.14H455.112V59.14ZM466.232 58.14V84H468.232V58.14H466.232ZM467.232 83H455.112V85H467.232V83ZM512.359 32.1H513.359V31.1H512.359V32.1ZM512.359 40.68V41.68H513.359V40.68H512.359ZM499.819 40.68H498.819V41.68H499.819V40.68ZM499.819 32.1V31.1H498.819V32.1H499.819ZM499.999 84H498.999V85H499.999V84ZM499.999 47.22V46.22H498.999V47.22H499.999ZM512.119 47.22H513.119V46.22H512.119V47.22ZM512.119 84V85H513.119V84H512.119ZM511.359 32.1V40.68H513.359V32.1H511.359ZM512.359 39.68H499.819V41.68H512.359V39.68ZM500.819 40.68V32.1H498.819V40.68H500.819ZM499.819 33.1H512.359V31.1H499.819V33.1ZM500.999 84V47.22H498.999V84H500.999ZM499.999 48.22H512.119V46.22H499.999V48.22ZM511.119 47.22V84H513.119V47.22H511.119ZM512.119 83H499.999V85H512.119V83ZM520.197 55.8H519.197V56.8H520.197V55.8ZM520.197 53.04L519.49 52.3329L519.197 52.6258V53.04H520.197ZM526.017 47.22V46.22H525.603L525.31 46.5129L526.017 47.22ZM555.477 47.22H556.477V46.22H555.477V47.22ZM555.477 55.8V56.8H556.477V55.8H555.477ZM532.317 58.14H533.317V57.14H532.317V58.14ZM532.317 75.42H531.317V76.42H532.317V75.42ZM555.477 75.42H556.477V74.42H555.477V75.42ZM555.477 84V85H556.477V84H555.477ZM526.017 84L525.31 84.7071L525.603 85H526.017V84ZM520.197 78.18H519.197V78.5942L519.49 78.8871L520.197 78.18ZM520.197 58.14V57.14H519.197V58.14H520.197ZM521.197 55.8V53.04H519.197V55.8H521.197ZM520.904 53.7471C522.044 52.6071 522.929 51.7221 523.814 50.8371C524.699 49.9521 525.584 49.0671 526.724 47.9271L525.31 46.5129C524.17 47.6529 523.285 48.5379 522.4 49.4229C521.515 50.3079 520.63 51.1929 519.49 52.3329L520.904 53.7471ZM526.017 48.22H555.477V46.22H526.017V48.22ZM554.477 47.22V55.8H556.477V47.22H554.477ZM555.477 54.8H520.197V56.8H555.477V54.8ZM531.317 58.14V75.42H533.317V58.14H531.317ZM532.317 76.42H555.477V74.42H532.317V76.42ZM554.477 75.42V84H556.477V75.42H554.477ZM555.477 83H526.017V85H555.477V83ZM526.724 83.2929C524.444 81.0129 523.184 79.7529 520.904 77.4729L519.49 78.8871C521.77 81.1671 523.03 82.4271 525.31 84.7071L526.724 83.2929ZM521.197 78.18V58.14H519.197V78.18H521.197ZM520.197 59.14H532.317V57.14H520.197V59.14ZM597.249 47.22H598.249V46.22H597.249V47.22ZM597.249 55.8V56.8H598.249V55.8H597.249ZM561.849 55.8H560.849V56.8H561.849V55.8ZM561.849 53.1L561.142 52.3929L560.849 52.6858V53.1H561.849ZM567.729 47.22V46.22H567.315L567.022 46.5129L567.729 47.22ZM592.569 60.84L593.238 60.0967L592.953 59.84H592.569V60.84ZM594.129 62.4L594.841 61.6978L594.836 61.6929L594.129 62.4ZM598.389 66.72H599.389V66.3099L599.101 66.0179L598.389 66.72ZM598.389 73.08V74.08H599.389V73.08H598.389ZM586.269 73.08H585.269V74.08H586.269V73.08ZM586.269 69.42H587.269V68.42H586.269V69.42ZM567.729 69.42L567.022 70.1271L567.315 70.42H567.729V69.42ZM561.849 63.54H560.849V63.9542L561.142 64.2471L561.849 63.54ZM561.849 58.14V57.14H560.849V58.14H561.849ZM573.969 58.14H574.969V57.14H573.969V58.14ZM573.969 60.84H572.969V61.84H573.969V60.84ZM562.809 84H561.809V85H562.809V84ZM562.809 75.42V74.42H561.809V75.42H562.809ZM598.389 75.42H599.389V74.42H598.389V75.42ZM598.389 78.12L599.096 78.8271L599.389 78.5342V78.12H598.389ZM596.829 79.68L596.122 78.9728L596.114 78.9807L596.829 79.68ZM594.129 82.44L594.836 83.1471L594.844 83.1393L594.129 82.44ZM592.569 84V85H592.983L593.276 84.7071L592.569 84ZM596.249 47.22V55.8H598.249V47.22H596.249ZM597.249 54.8H561.849V56.8H597.249V54.8ZM562.849 55.8V53.1H560.849V55.8H562.849ZM562.556 53.8071C564.836 51.5271 566.156 50.2071 568.436 47.9271L567.022 46.5129C564.742 48.7929 563.422 50.1129 561.142 52.3929L562.556 53.8071ZM567.729 48.22H597.249V46.22H567.729V48.22ZM591.9 61.5833C592.478 62.1034 592.886 62.5712 593.422 63.1071L594.836 61.6929C594.412 61.2688 593.86 60.6566 593.238 60.0967L591.9 61.5833ZM593.417 63.1021L597.677 67.4221L599.101 66.0179L594.841 61.6979L593.417 63.1021ZM597.389 66.72V73.08H599.389V66.72H597.389ZM598.389 72.08H586.269V74.08H598.389V72.08ZM587.269 73.08V69.42H585.269V73.08H587.269ZM586.269 68.42H567.729V70.42H586.269V68.42ZM568.436 68.7129C566.156 66.4329 564.836 65.1129 562.556 62.8329L561.142 64.2471C563.422 66.5271 564.742 67.8471 567.022 70.1271L568.436 68.7129ZM562.849 63.54V58.14H560.849V63.54H562.849ZM561.849 59.14H573.969V57.14H561.849V59.14ZM572.969 58.14V60.84H574.969V58.14H572.969ZM573.969 61.84H592.569V59.84H573.969V61.84ZM563.809 84V75.42H561.809V84H563.809ZM562.809 76.42H598.389V74.42H562.809V76.42ZM597.389 75.42V78.12H599.389V75.42H597.389ZM597.682 77.4129C597.142 77.9529 596.602 78.4929 596.122 78.9729L597.536 80.3871C598.016 79.9071 598.556 79.3671 599.096 78.8271L597.682 77.4129ZM596.114 78.9807L593.414 81.7407L594.844 83.1393L597.544 80.3793L596.114 78.9807ZM593.422 81.7329C592.942 82.2129 592.462 82.6929 591.862 83.2929L593.276 84.7071C593.876 84.1071 594.356 83.6271 594.836 83.1471L593.422 81.7329ZM592.569 83H562.809V85H592.569V83Z" fill="#E2E53C" mask="url(#path-1-outside-1_4_55)"/>
</g>
<defs>
<filter id="filter0_dd_4_55" x="1.06738" y="32.1001" width="609.321" height="90.4999" filterUnits="userSpaceOnUse" color-interpolation-filters="sRGB">
<feFlood flood-opacity="0" result="BackgroundImageFix"/>
<feColorMatrix in="SourceAlpha" type="matrix" values="0 0 0 0 0 0 0 0 0 0 0 0 0 0 0 0 0 0 127 0" result="hardAlpha"/>
<feOffset dx="8" dy="22"/>
<feGaussianBlur stdDeviation="2"/>
<feComposite in2="hardAlpha" operator="out"/>
<feColorMatrix type="matrix" values="0 0 0 0 0 0 0 0 0 0 0 0 0 0 0 0 0 0 0.25 0"/>
<feBlend mode="normal" in2="BackgroundImageFix" result="effect1_dropShadow_4_55"/>
<feColorMatrix in="SourceAlpha" type="matrix" values="0 0 0 0 0 0 0 0 0 0 0 0 0 0 0 0 0 0 127 0" result="hardAlpha"/>
<feOffset dy="4"/>
<feGaussianBlur stdDeviation="2"/>
<feComposite in2="hardAlpha" operator="out"/>
<feColorMatrix type="matrix" values="0 0 0 0 0 0 0 0 0 0 0 0 0 0 0 0 0 0 0.25 0"/>
<feBlend mode="normal" in2="effect1_dropShadow_4_55" result="effect2_dropShadow_4_55"/>
<feBlend mode="normal" in="SourceGraphic" in2="effect2_dropShadow_4_55" result="shape"/>
</filter>
</defs>
</svg>
