<svg width="734" height="20" viewBox="0 0 734 20" fill="none" xmlns="http://www.w3.org/2000/svg">
<path d="M172.567 1.3H188.002V5.311H184.768V4.534H181.912V12.766H182.689V16H177.88V12.766H178.657V4.534H175.801V5.311H172.567V1.3ZM206.273 10.267H197.327V12.745H198.104V15.979H193.295V12.745H194.072V4.534H193.295V1.3H198.104V4.534H197.327V7.033H206.273V4.534H205.496V1.3H206.273V1.321H209.528V1.3H210.305V4.534H209.528V12.745H210.305V15.979H205.496V12.745H206.273V10.267ZM232.743 11.968V16H216.531V12.766H217.308V10.267H216.531V7.033H217.308V4.534H216.531V1.3H232.743V5.332H229.509V4.534H220.563V7.033H224.637V10.267H220.563V12.766H229.509V11.968H232.743ZM250.484 1.3H265.919V5.311H262.685V4.534H259.829V12.766H260.606V16H255.797V12.766H256.574V4.534H253.718V5.311H250.484V1.3ZM287.591 11.968V16H271.379V12.766H272.156V10.267H271.379V7.033H272.156V4.534H271.379V1.3H287.591V5.332H284.357V4.534H275.411V7.033H279.485V10.267H275.411V12.766H284.357V11.968H287.591ZM309.712 11.968V16H293.5V12.766H294.277V4.534H293.5V1.3H309.712V5.332H306.478V4.534H297.532V12.766H306.478V11.968H309.712ZM328.582 10.267H319.636V12.745H320.413V15.979H315.604V12.745H316.381V4.534H315.604V1.3H320.413V4.534H319.636V7.033H328.582V4.534H327.805V1.3H328.582V1.321H331.837V1.3H332.614V4.534H331.837V12.745H332.614V15.979H327.805V12.745H328.582V10.267ZM338.672 1.321H343.481V4.555H342.704V12.745H343.481V15.979H338.672V12.745H339.449V4.555H338.672V1.321ZM365.939 11.968V16H349.727V12.766H350.504V10.267H349.727V7.033H350.504V4.534H349.727V1.3H365.939V5.332H362.705V4.534H353.759V7.033H357.833V10.267H353.759V12.766H362.705V11.968H365.939ZM387.807 1.3V5.311H384.573V4.534H375.627V6.634L376.005 7.033H385.539L387.807 9.322V12.787H388.605V16.021H387.807L372.372 16V11.989H375.627V12.766H384.573V10.267C384.307 10.267 381.003 10.267 374.661 10.267L372.372 7.978V4.534H371.595V1.3H387.807ZM420.367 10.393H416.545V12.766H417.322V16H412.513V12.766H413.311V10.393H409.489L407.2 8.104V4.555H406.423V1.321H411.232V4.555H410.455V6.781L410.833 7.159H419.023L419.401 6.781V4.555H418.624V1.321H423.433V4.555H422.656V8.104L420.367 10.393ZM432.692 4.534V12.367L433.07 12.766H441.638V4.933L441.26 4.534H432.692ZM428.66 1.3H442.583L444.872 3.589V12.766H445.67V16H431.726L429.437 13.711V4.534H428.66V1.3ZM465.241 16C463.281 16 461.468 16 459.802 16C457.716 16 455.903 16 454.363 16L452.074 13.711V4.534H451.297V1.3H456.106V4.534H455.329V12.367L455.707 12.766C457.093 12.766 458.458 12.766 459.802 12.766C461.146 12.766 462.511 12.766 463.897 12.766L464.275 12.367V4.534H463.498V1.3H468.307V4.534H467.53V13.711L465.241 16ZM489.609 16L487.32 13.711V4.555H486.543V1.321H487.32V1.3H490.575V1.321H491.352V4.555H490.575V12.367L490.953 12.766H499.521V11.989H502.755V16C497.323 16 492.941 16 489.609 16ZM511.49 4.534V12.367L511.868 12.766H520.436V4.933L520.058 4.534H511.49ZM507.458 1.3H521.381L523.67 3.589V12.766H524.468V16H510.524L508.235 13.711V4.534H507.458V1.3ZM541.337 16.021C539.237 16.021 537.137 16.021 535.037 16.021L530.459 11.443V4.555H529.682V1.3H534.491V4.555H533.714V10.099L536.381 12.787C537.585 12.773 538.789 12.773 539.993 12.787L542.66 10.099V4.555H541.883V1.3H546.692V4.555H545.915V11.443L541.337 16.021ZM568.769 11.968V16H552.557V12.766H553.334V10.267H552.557V7.033H553.334V4.534H552.557V1.3H568.769V5.332H565.535V4.534H556.589V7.033H560.663V10.267H556.589V12.766H565.535V11.968H568.769Z" fill="white"/>
<line x1="5" y1="11" x2="145" y2="11" stroke="url(#paint0_linear_3_18)" stroke-width="10" stroke-linecap="round"/>
<line x1="589" y1="11" x2="729" y2="11" stroke="url(#paint1_linear_3_18)" stroke-width="10" stroke-linecap="round"/>
<defs>
<linearGradient id="paint0_linear_3_18" x1="0" y1="16.5" x2="149.999" y2="16.5" gradientUnits="userSpaceOnUse">
<stop offset="0.02" stop-color="#A8620A"/>
<stop offset="0.2" stop-color="#E09519"/>
<stop offset="0.48" stop-color="#FFE581"/>
<stop offset="0.52" stop-color="#FCDC75"/>
<stop offset="0.6" stop-color="#F6C755"/>
<stop offset="0.71" stop-color="#ECA522"/>
<stop offset="0.75" stop-color="#E8980F"/>
<stop offset="1" stop-color="#FEB838"/>
</linearGradient>
<linearGradient id="paint1_linear_3_18" x1="584" y1="16.5" x2="733.999" y2="16.5" gradientUnits="userSpaceOnUse">
<stop offset="0.02" stop-color="#A8620A"/>
<stop offset="0.2" stop-color="#E09519"/>
<stop offset="0.48" stop-color="#FFE581"/>
<stop offset="0.52" stop-color="#FCDC75"/>
<stop offset="0.6" stop-color="#F6C755"/>
<stop offset="0.71" stop-color="#ECA522"/>
<stop offset="0.75" stop-color="#E8980F"/>
<stop offset="1" stop-color="#FEB838"/>
</linearGradient>
</defs>
</svg>
