<svg width="483" height="83" viewBox="0 0 483 83" fill="none" xmlns="http://www.w3.org/2000/svg">
<rect x="2.34846" y="2.34846" width="478.303" height="77.4992" rx="38.7496" stroke="url(#paint0_linear_17_431)" stroke-width="4.69692"/>
<path d="M421.157 40.7068C421.157 41.3722 421.383 41.9303 421.834 42.3812C422.283 42.8306 422.84 43.0552 423.506 43.0552L431.021 43.0552L428.907 45.1688C428.477 45.5994 428.261 46.1474 428.261 46.8128C428.261 47.4782 428.477 48.0261 428.907 48.4567C429.338 48.8872 429.886 49.1025 430.551 49.1025C431.216 49.1025 431.764 48.8872 432.195 48.4567L438.301 42.3507C438.536 42.1158 438.703 41.8614 438.801 41.5874C438.898 41.3135 438.947 41.0199 438.947 40.7068C438.947 40.3936 438.898 40.1001 438.801 39.8261C438.703 39.5521 438.536 39.2977 438.301 39.0629L432.195 32.9569C431.764 32.5263 431.216 32.311 430.551 32.311C429.886 32.311 429.338 32.5263 428.907 32.9569C428.477 33.3874 428.261 33.9354 428.261 34.6008C428.261 35.2662 428.477 35.8141 428.907 36.2447L431.021 38.3583L423.506 38.3583C422.84 38.3583 422.283 38.5838 421.834 39.0347C421.383 39.484 421.157 40.0414 421.157 40.7068ZM407.066 40.7068C407.066 37.4581 407.683 34.4051 408.917 31.5478C410.149 28.6905 411.822 26.205 413.936 24.0914C416.049 21.9778 418.535 20.3049 421.392 19.0728C424.249 17.839 427.302 17.2222 430.551 17.2222C433.8 17.2222 436.853 17.839 439.71 19.0728C442.567 20.3049 445.053 21.9778 447.166 24.0914C449.28 26.205 450.954 28.6905 452.187 31.5478C453.42 34.4051 454.036 37.4581 454.036 40.7068C454.036 43.9555 453.42 47.0085 452.187 49.8658C450.954 52.7231 449.28 55.2085 447.166 57.3221C445.053 59.4357 442.567 61.1086 439.71 62.3408C436.853 63.5745 433.8 64.1914 430.551 64.1914C427.302 64.1914 424.249 63.5745 421.392 62.3408C418.535 61.1086 416.049 59.4357 413.936 57.3221C411.822 55.2085 410.149 52.7231 408.917 49.8658C407.683 47.0085 407.066 43.9555 407.066 40.7068ZM411.763 40.7068C411.763 45.9125 413.593 50.3456 417.252 54.0061C420.912 57.665 425.345 59.4945 430.551 59.4945C435.757 59.4945 440.19 57.665 443.85 54.0061C447.509 50.3456 449.339 45.9125 449.339 40.7068C449.339 35.501 447.509 31.0687 443.85 27.4098C440.19 23.7493 435.757 21.9191 430.551 21.9191C425.345 21.9191 420.912 23.7493 417.252 27.4098C413.593 31.0687 411.763 35.501 411.763 40.7068Z" fill="url(#paint1_linear_17_431)"/>
<path d="M56.2393 47.4622C54.4393 47.4622 52.6393 47.4622 50.8393 47.4622L46.9153 43.5382V37.6342H46.2493V34.8442H50.3713V37.6342H49.7053V42.3862L51.9913 44.6902C53.0233 44.6782 54.0553 44.6782 55.0873 44.6902L57.3733 42.3862V37.6342H56.7073V34.8442H60.8293V37.6342H60.1633V43.5382L56.2393 47.4622ZM62.8327 34.8622H66.9547V37.6342H66.2887V44.6542H66.9547V47.4262H62.8327V44.6542H63.4987V37.6342H62.8327V34.8622ZM83.3238 43.9882V47.4442H69.4278V44.6722H70.0938V42.5302H69.4278V39.7582H70.0938V37.6162H69.4278V34.8442H83.3238V38.3002H80.5518V37.6162H72.8838V39.7582H76.3758V42.5302H72.8838V44.6722H80.5518V43.9882H83.3238ZM95.7864 44.6902H98.9544L99.2784 44.3482V37.6342H98.6124V34.8622H99.2784H102.068H102.734V37.6342H102.068V45.5002L100.106 47.4622H94.6344L94.0584 46.8862L93.4824 47.4622H86.0484V37.6522H85.3824V34.8622H86.0484H88.8384H89.5044V37.6522H88.8384V44.6902H92.3304L92.6724 44.3482V34.8622H95.4444V44.3482L95.7864 44.6902ZM123.427 37.6162H116.407L116.083 37.9582V40.9282H123.751V37.9582L123.427 37.6162ZM126.523 36.8062L126.541 44.6722H127.207V47.4442H123.085V44.6722H123.751V43.7002H116.083V44.6722H116.749V47.4442H112.627V44.6722H113.293V36.8062L115.255 34.8442H124.561L126.523 36.8062ZM131.779 47.4442L129.817 45.4822V37.6342H129.151V34.8622H129.817V34.8442H132.607V34.8622H133.273V37.6342H132.607V44.3302L132.931 44.6722H140.275V44.0062H143.047V47.4442C138.391 47.4442 134.635 47.4442 131.779 47.4442ZM146.826 47.4442L144.864 45.4822V37.6342H144.198V34.8622H144.864V34.8442H147.654V34.8622H148.32V37.6342H147.654V44.3302L147.978 44.6722H155.322V44.0062H158.094V47.4442C153.438 47.4442 149.682 47.4442 146.826 47.4442ZM178.828 39.4342V37.9582L178.504 37.6162H171.16V39.7582H178.504L178.828 39.4342ZM181.6 36.8062C181.6 38.5102 181.606 39.7642 181.618 40.5682L179.656 42.5302H171.16V44.6542H171.826V47.4442H167.704V44.6542H168.37V37.6162H167.704V34.8442H179.656L181.6 36.8062ZM186.962 37.6162V39.7582H194.18L194.63 39.3082V37.9582L194.306 37.6162H186.962ZM194.63 44.6722V42.9802L194.18 42.5302H186.962V44.6722H187.574V47.4442H183.506V44.6722H184.172V37.6162H183.506V34.8442H195.44L197.402 36.8062V40.4422L196.718 41.1442L197.402 41.8282V44.6722H198.086V47.4442H193.964V44.6722H194.63ZM203.482 37.6162V44.3302L203.806 44.6722H211.15V37.9582L210.826 37.6162H203.482ZM200.026 34.8442H211.96L213.922 36.8062V44.6722H214.606V47.4442H202.654L200.692 45.4822V37.6162H200.026V34.8442ZM227.853 44.3302V37.9582L227.529 37.6162H220.185V44.6722H227.529L227.853 44.3302ZM217.395 47.4442H216.729V44.6722H217.395V37.6162H216.729V34.8442H217.395H228.663L230.625 36.8062V45.4822L228.663 47.4442H217.395ZM244.849 47.4442C243.169 47.4442 241.615 47.4442 240.187 47.4442C238.399 47.4442 236.845 47.4442 235.525 47.4442L233.563 45.4822V37.6162H232.897V34.8442H237.019V37.6162H236.353V44.3302L236.677 44.6722C237.865 44.6722 239.035 44.6722 240.187 44.6722C241.339 44.6722 242.509 44.6722 243.697 44.6722L244.021 44.3302V37.6162H243.355V34.8442H247.477V37.6162H246.811V45.4822L244.849 47.4442ZM263.496 43.9882V47.4442H249.6V44.6722H250.266V37.6162H249.6V34.8442H263.496V38.3002H260.724V37.6162H253.056V44.6722H260.724V43.9882H263.496ZM265.001 34.8442H278.231V38.2822H275.459V37.6162H273.011V44.6722H273.677V47.4442H269.555V44.6722H270.221V37.6162H267.773V38.2822H265.001V34.8442ZM293.585 34.8442V38.2822H290.813V37.6162H283.145V39.4162L283.469 39.7582H291.641L293.585 41.7202V44.6902H294.269V47.4622H293.585L280.355 47.4442V44.0062H283.145V44.6722H290.813V42.5302C290.585 42.5302 287.753 42.5302 282.317 42.5302L280.355 40.5682V37.6162H279.689V34.8442H293.585Z" fill="white"/>
<defs>
<linearGradient id="paint0_linear_17_431" x1="0" y1="41.0963" x2="482.996" y2="41.0963" gradientUnits="userSpaceOnUse">
<stop offset="0.02" stop-color="#920AA8"/>
<stop offset="0.2" stop-color="#E019CC"/>
<stop offset="0.48" stop-color="#FF81E3"/>
<stop offset="0.52" stop-color="#FC75D6"/>
<stop offset="0.6" stop-color="#DF55F6"/>
<stop offset="0.71" stop-color="#E822EC"/>
<stop offset="0.75" stop-color="#E80F91"/>
<stop offset="0.8125" stop-color="#EE19D8"/>
<stop offset="1" stop-color="#FE3873"/>
</linearGradient>
<linearGradient id="paint1_linear_17_431" x1="430.552" y1="17.2222" x2="430.552" y2="64.191" gradientUnits="userSpaceOnUse">
<stop offset="0.02" stop-color="#920AA8"/>
<stop offset="0.2" stop-color="#E019CC"/>
<stop offset="0.48" stop-color="#FF81E3"/>
<stop offset="0.52" stop-color="#FC75D6"/>
<stop offset="0.6" stop-color="#DF55F6"/>
<stop offset="0.71" stop-color="#E822EC"/>
<stop offset="0.75" stop-color="#E80F91"/>
<stop offset="0.8125" stop-color="#EE19D8"/>
<stop offset="1" stop-color="#FE3873"/>
</linearGradient>
</defs>
</svg>
